<svg width="25" height="22" viewBox="0 0 25 22" fill="none" xmlns="http://www.w3.org/2000/svg">
<path fill-rule="evenodd" clip-rule="evenodd" d="M1.5 1.75C1.5 1.61193 1.61193 1.5 1.75 1.5H22.75C22.8881 1.5 23 1.61193 23 1.75V17.25C23 17.3881 22.8881 17.5 22.75 17.5H11.9861C11.7144 17.5 11.4464 17.5633 11.2034 17.6848L6.5 20.0365V19.25C6.5 18.2835 5.7165 17.5 4.75 17.5H1.75C1.61193 17.5 1.5 17.3881 1.5 17.25V1.75ZM1.75 0C0.783502 0 0 0.783502 0 1.75V17.25C0 18.2165 0.783502 19 1.75 19H4.75C4.88807 19 5 19.1119 5 19.25V21.0882C5 21.7201 5.66496 22.131 6.23013 21.8485L11.8743 19.0264C11.909 19.009 11.9473 19 11.9861 19H22.75C23.7165 19 24.5 18.2165 24.5 17.25V1.75C24.5 0.783502 23.7165 0 22.75 0H1.75ZM7.5 8.25C7.5 7.83579 7.16421 7.5 6.75 7.5C6.33579 7.5 6 7.83579 6 8.25V10.25C6 10.6642 6.33579 11 6.75 11C7.16421 11 7.5 10.6642 7.5 10.25V8.25ZM12.75 7.5C13.1642 7.5 13.5 7.83579 13.5 8.25V10.25C13.5 10.6642 13.1642 11 12.75 11C12.3358 11 12 10.6642 12 10.25V8.25C12 7.83579 12.3358 7.5 12.75 7.5ZM19.5 8.25C19.5 7.83579 19.1642 7.5 18.75 7.5C18.3358 7.5 18 7.83579 18 8.25V10.25C18 10.6642 18.3358 11 18.75 11C19.1642 11 19.5 10.6642 19.5 10.25V8.25Z" fill="#BD9365"/>
</svg>
