<svg width="24" height="23" viewBox="0 0 24 23" fill="none" xmlns="http://www.w3.org/2000/svg">
<path fill-rule="evenodd" clip-rule="evenodd" d="M21.4515 7.96912L11.495 0L0.268712 9.39391C-0.0489573 9.65973 -0.0909908 10.1327 0.174827 10.4504C0.440645 10.7681 0.913655 10.8101 1.23132 10.5443L2 9.90108V20.9691C2 21.9356 2.7835 22.7191 3.75 22.7191H19.75C20.7165 22.7191 21.5 21.9356 21.5 20.9691V9.92925L22.2814 10.5546C22.6047 10.8135 23.0767 10.7611 23.3356 10.4378C23.5944 10.1144 23.5421 9.6424 23.2187 9.38356L21.5 8.00794V7.96912H21.4515ZM20 8.72866L11.5161 1.93821L3.5 8.64592V20.9691C3.5 21.1072 3.61193 21.2191 3.75 21.2191H19.75C19.8881 21.2191 20 21.1072 20 20.9691V8.72866Z" fill="#BD9365"/>
</svg>
