<svg width="20" height="22" viewBox="0 0 20 22" fill="none" xmlns="http://www.w3.org/2000/svg">
<path fill-rule="evenodd" clip-rule="evenodd" d="M12.6355 12.326C14.7776 11.2631 16.25 9.05349 16.25 6.5C16.25 2.91015 13.3399 0 9.75 0C6.16015 0 3.25 2.91015 3.25 6.5C3.25 9.12478 4.80578 11.3862 7.04549 12.4124C2.92877 13.5968 0 17.1913 0 21.3478C0 21.708 0.344396 22 0.769231 22C1.19407 22 1.53846 21.708 1.53846 21.3478C1.53846 16.8392 5.40105 13.3043 10 13.3043C14.5989 13.3043 18.4615 16.8392 18.4615 21.3478C18.4615 21.708 18.8059 22 19.2308 22C19.6556 22 20 21.708 20 21.3478C20 17.0847 16.9191 13.4128 12.6355 12.326ZM14.75 6.5C14.75 9.26142 12.5114 11.5 9.75 11.5C6.98858 11.5 4.75 9.26142 4.75 6.5C4.75 3.73858 6.98858 1.5 9.75 1.5C12.5114 1.5 14.75 3.73858 14.75 6.5Z" fill="#BD9365"/>
</svg>
